<svg width="74" height="41" viewBox="0 0 74 41" fill="none" xmlns="http://www.w3.org/2000/svg">
<path d="M4.96879 37.2691C4.22477 37.1971 3.08326 37.1716 3.08326 36.0144V21.5241H0V36.3008C0 37.8767 0.902484 40.2612 4.26843 40.0605L4.96879 37.2691ZM13.6846 37.5701C13.3664 37.7063 12.5937 37.8201 11.9343 37.8201C10.3203 37.8201 9.34547 37.1591 9.2942 36.2064C9.21259 34.6933 11.3143 34.2229 13.6846 34.5062V37.5701ZM16.6171 39.3651V31.818C16.6171 28.6811 14.8667 27.4535 11.7298 27.4535C9.95661 27.4535 7.95554 27.975 6.93265 28.4068L7.68047 30.8636C8.54416 30.5 10.221 30.0678 11.3804 30.0678C12.7899 30.0678 13.6846 30.3048 13.6846 31.5773V31.9976C9.77446 31.7309 6.18102 32.8302 6.18799 36.1717C6.19391 38.9461 8.34267 40.2516 12.0252 40.2516C13.8666 40.2516 15.7078 39.8425 16.6171 39.3651ZM27.7511 40.0247V37.3827H21.9294L27.7499 30.0688L27.7493 27.6928H18.5031L18.5036 30.2816H23.9127L18.5042 37.5089V40.0247H27.7511ZM32.8849 24.7343C32.8849 23.8022 32.0893 22.9497 31.1118 22.9497C30.1343 22.9497 29.3387 23.8022 29.3387 24.7343C29.3387 25.6664 30.0593 26.4417 31.1118 26.4417C32.1519 26.4417 32.8849 25.6664 32.8849 24.7343ZM32.6576 40.0247V27.6928H29.566V40.0247H32.6576ZM43.9568 36.4554C43.9568 33.9776 41.8163 33.2109 40.1035 32.6226C38.7773 32.1672 37.7297 31.7605 37.8876 30.9385C37.9778 30.4687 38.5358 29.9983 39.8937 30.0158C40.7615 30.027 41.9843 30.2998 42.5388 30.618L43.5952 28.34C42.6064 27.84 41.2561 27.4535 39.5925 27.4535C36.5541 27.4535 34.7311 29.0313 34.7311 31.1908C34.7311 33.6005 36.7586 34.4587 38.4009 35.0192C39.5554 35.4131 40.6633 35.6281 40.6633 36.5373C40.6633 37.3557 39.8482 37.6737 38.6667 37.6737C37.7263 37.6737 36.2796 37.2645 35.6285 36.878L34.4806 39.3651C35.4452 39.8425 37.0606 40.2516 38.6761 40.2516C42.1482 40.2516 43.9568 38.7513 43.9568 36.4554Z" fill="#24211D"/>
<path d="M62.299 40.0247V31.5456C62.299 29.0678 60.6622 27.4993 57.9572 27.4993C56.1158 27.4993 54.6773 28.1585 53.9044 28.7496C53.1997 28.1131 51.8876 27.4993 49.91 27.4993C48.1596 27.4993 46.9096 27.8857 45.6593 28.3858V40.0247H48.7508V30.5185C49.1827 30.3367 49.3872 30.2229 50.0919 30.2229C51.4103 30.2229 52.4167 30.8524 52.4167 31.943V40.0247L55.4999 40.0243V30.806C55.9318 30.4196 56.3887 30.2229 57.1615 30.2229C58.4118 30.2229 59.1846 30.9052 59.1846 32.1097V40.0247H62.299ZM74 39.3287V27.6907H70.9168V37.3966C70.5758 37.533 70.0907 37.6692 69.2951 37.6692C67.9312 37.6692 67.2265 37.0556 67.2265 35.737V27.6907H64.1349V35.6688C64.1349 38.8508 65.908 40.2153 69.2951 40.2153C71.2046 40.2153 72.9316 39.8516 74 39.3287Z" fill="#F68F28"/>
<path fill-rule="evenodd" clip-rule="evenodd" d="M58.3313 12.6568C59.0722 11.9157 58.6994 10.3411 56.8298 8.47142C54.9598 6.60155 51.8128 5.63014 51.5588 5.88406C51.313 6.12985 52.2763 9.285 54.1462 11.1548C54.7537 11.7625 55.3302 12.2118 55.857 12.5165C55.2665 12.3569 54.536 12.2655 53.6693 12.2655C51.025 12.2655 48.113 13.804 48.113 14.1632C48.113 14.5109 51.025 16.0607 53.6693 16.0607C54.5286 16.0607 55.2539 15.9709 55.8418 15.8138C55.3115 16.1186 54.7304 16.5705 54.1178 17.1831C52.2478 19.053 51.2765 22.2 51.5304 22.4541C51.7763 22.7 54.9313 21.7366 56.8012 19.8666C57.4089 19.259 57.8583 18.6826 58.1628 18.1557C58.0033 18.7462 57.912 19.4767 57.912 20.3435C57.912 22.9878 59.4503 25.9 59.8094 25.9C60.1572 25.9 61.707 22.9878 61.707 20.3435C61.707 19.4841 61.6172 18.7588 61.4601 18.1709C61.7648 18.7012 62.2167 19.2823 62.8295 19.895C64.6994 21.765 67.8465 22.7363 68.1004 22.4824C68.3464 22.2365 67.3829 19.0816 65.5129 17.2116C64.9053 16.6039 64.3289 16.1545 63.8021 15.85C64.3926 16.0095 65.1232 16.1008 65.9898 16.1008C68.634 16.1008 71.5464 14.5624 71.5464 14.2033C71.5464 13.8555 68.634 12.3058 65.9898 12.3058C65.1306 12.3058 64.4052 12.3955 63.8173 12.5526C64.3476 12.248 64.9287 11.7961 65.5414 11.1833C67.4114 9.31333 68.3827 6.16643 68.1287 5.9125C67.8828 5.6664 64.7278 6.62999 62.8578 8.49986C60.9882 10.3697 60.6153 11.9442 61.3562 12.685C61.6817 13.0106 62.1683 13.1211 62.7701 12.984C62.2391 13.3138 61.9685 13.7391 61.9685 14.2033C61.9685 14.6638 62.2345 15.0859 62.7571 15.4145C62.1482 15.272 61.656 15.3814 61.3278 15.7098C61.0023 16.0354 60.892 16.522 61.0289 17.1237C60.6991 16.5925 60.2737 16.3221 59.8094 16.3221C59.349 16.3221 58.9268 16.5881 58.5983 17.1106C58.7407 16.5018 58.6311 16.0097 58.3028 15.6815C57.9774 15.3559 57.491 15.2454 56.8893 15.3824C57.4204 15.0526 57.6909 14.6274 57.6909 14.1632C57.6909 13.7028 57.4249 13.2806 56.9023 12.952C57.5111 13.0943 58.0031 12.9849 58.3313 12.6568ZM59.8296 9.57783C60.8774 9.57783 61.7272 8.20101 61.7272 5.55656C61.7272 2.91212 60.1888 0 59.8296 0C59.4818 0 57.9322 2.91212 57.9322 5.55656C57.9322 8.20101 58.7819 9.57783 59.8296 9.57783Z" fill="#F68F28"/>
</svg>
